<?xml version="1.0" encoding="UTF-8"?>
<svg width="336px" height="609px" viewBox="0 0 336 609" version="1.1" xmlns="http://www.w3.org/2000/svg" xmlns:xlink="http://www.w3.org/1999/xlink">
    <title>手机-320x486-SVG-默认</title>
    <defs>
        <rect id="path-1" x="8" y="32" width="320" height="541" rx="20"></rect>
        <path d="M8,87 L328,87 L328,553 C328,564.045695 319.045695,573 308,573 L28,573 C16.954305,573 8,564.045695 8,553 L8,87 L8,87 Z" id="path-3"></path>
    </defs>
    <g id="控件" stroke="none" stroke-width="1" fill="none" fill-rule="evenodd">
        <g id="手机-320x486-SVG-默认">
            <g>
                <path d="M40,0 L296,0 C318.09139,-4.05812251e-15 336,17.90861 336,40 L336,569 C336,591.09139 318.09139,609 296,609 L40,609 C17.90861,609 2.705415e-15,591.09139 0,569 L0,40 C-2.705415e-15,17.90861 17.90861,4.05812251e-15 40,0 Z" id="矩形" fill="#FFFFFF"></path>
                <mask id="mask-2" fill="white">
                    <use xlink:href="#path-1"></use>
                </mask>
                <use id="矩形" fill="#D8D8D8" xlink:href="#path-1"></use>
                <g id="头部-iphone6-55-同比缩放-顶部圆角" mask="url(#mask-2)">
                    <g transform="translate(8.000000, 32.000000)">
                        <g id="元素">
                            <rect id="==" fill="#000000" x="0" y="0" width="320" height="55"></rect>
                            <g id="X+..." transform="translate(14.000000, 27.000000)" fill="#FFFFFF">
                                <path d="M11.1066017,3.10660172 L11.1066017,10.1056017 L18.1066017,10.1066017 L18.1066017,11.1066017 L11.1066017,11.1056017 L11.1066017,18.1066017 L10.1066017,18.1066017 L10.1066017,11.1066017 L3.10660172,11.1066017 L3.10660172,10.1066017 L10.1066017,10.1066017 L10.1066017,3.10660172 L11.1066017,3.10660172 Z" id="形状结合" transform="translate(10.606602, 10.606602) rotate(45.000000) translate(-10.606602, -10.606602) "></path>
                                <g id="..." transform="translate(274.000000, 9.000000)">
                                    <circle id="椭圆形" cx="1.5" cy="1.5" r="1.5"></circle>
                                    <circle id="椭圆形备份-3" cx="6.5" cy="1.5" r="1.5"></circle>
                                    <circle id="椭圆形备份-4" cx="11.5" cy="1.5" r="1.5"></circle>
                                </g>
                            </g>
                            <g id="头部">
                                <rect id="==" fill-opacity="0" fill="#D8D8D8" transform="translate(160.000000, 9.500000) scale(1, -1) translate(-160.000000, -9.500000) " x="0" y="0" width="320" height="19"></rect>
                                <path d="M147.865234,16.6425781 C148.982422,16.6425781 149.787109,16.1074219 150.279297,15.0371094 C150.619141,14.2910156 150.789062,13.3476562 150.789062,12.2070312 C150.789062,11.0039062 150.601562,10.0566406 150.226562,9.36523438 C149.742188,8.47070312 148.957031,8.0234375 147.871094,8.0234375 C146.664062,8.0234375 145.830078,8.66015625 145.369141,9.93359375 C145.123047,10.6171875 145,11.4355469 145,12.3886719 C145,13.6191406 145.205078,14.5996094 145.615234,15.3300781 C146.107422,16.2050781 146.857422,16.6425781 147.865234,16.6425781 Z M147.859375,15.6816406 C147.179688,15.6816406 146.699219,15.2851562 146.417969,14.4921875 C146.234375,13.9726562 146.142578,13.2851562 146.142578,12.4296875 C146.142578,11.2929688 146.286133,10.4326172 146.573242,9.84863281 C146.860352,9.26464844 147.314453,8.97265625 147.935547,8.97265625 C148.611328,8.97265625 149.066406,9.28027344 149.300781,9.89550781 C149.535156,10.5107422 149.652344,11.2949219 149.652344,12.2480469 C149.652344,13.5683594 149.490234,14.4707031 149.166016,14.9550781 C148.841797,15.4394531 148.40625,15.6816406 147.859375,15.6816406 Z M154.099609,16.4140625 C154.279297,15.5546875 154.425781,14.9316406 154.539062,14.5449219 C154.714844,13.9433594 154.972656,13.2773438 155.3125,12.546875 C155.65625,11.796875 156.051758,11.0976562 156.499023,10.4492188 C156.946289,9.80078125 157.304688,9.34570312 157.574219,9.08398438 L157.574219,9.08398438 L157.574219,8.1640625 L151.738281,8.1640625 L151.738281,9.22460938 L156.378906,9.22460938 C155.789062,9.90039062 155.226562,10.703125 154.691406,11.6328125 C153.785156,13.21875 153.199219,14.8125 152.933594,16.4140625 L152.933594,16.4140625 L154.099609,16.4140625 Z M160.527344,11.4980469 L160.527344,10.2207031 L159.302734,10.2207031 L159.302734,11.4980469 L160.527344,11.4980469 Z M160.527344,16.4140625 L160.527344,15.1367188 L159.302734,15.1367188 L159.302734,16.4140625 L160.527344,16.4140625 Z M164.546875,16.6425781 C165.664062,16.6425781 166.46875,16.1074219 166.960938,15.0371094 C167.300781,14.2910156 167.470703,13.3476562 167.470703,12.2070312 C167.470703,11.0039062 167.283203,10.0566406 166.908203,9.36523438 C166.423828,8.47070312 165.638672,8.0234375 164.552734,8.0234375 C163.345703,8.0234375 162.511719,8.66015625 162.050781,9.93359375 C161.804688,10.6171875 161.681641,11.4355469 161.681641,12.3886719 C161.681641,13.6191406 161.886719,14.5996094 162.296875,15.3300781 C162.789062,16.2050781 163.539062,16.6425781 164.546875,16.6425781 Z M164.541016,15.6816406 C163.861328,15.6816406 163.380859,15.2851562 163.099609,14.4921875 C162.916016,13.9726562 162.824219,13.2851562 162.824219,12.4296875 C162.824219,11.2929688 162.967773,10.4326172 163.254883,9.84863281 C163.541992,9.26464844 163.996094,8.97265625 164.617188,8.97265625 C165.292969,8.97265625 165.748047,9.28027344 165.982422,9.89550781 C166.216797,10.5107422 166.333984,11.2949219 166.333984,12.2480469 C166.333984,13.5683594 166.171875,14.4707031 165.847656,14.9550781 C165.523438,15.4394531 165.087891,15.6816406 164.541016,15.6816406 Z M171.285156,16.6542969 C172.191406,16.6542969 172.892578,16.3974609 173.388672,15.8837891 C173.884766,15.3701172 174.132812,14.7441406 174.132812,14.0058594 C174.132812,13.3808594 173.947266,12.8730469 173.576172,12.4824219 C173.376953,12.2753906 173.103516,12.0917969 172.755859,11.9316406 C173.068359,11.7558594 173.298828,11.5761719 173.447266,11.3925781 C173.712891,11.0683594 173.845703,10.6445312 173.845703,10.1210938 C173.845703,9.5546875 173.617188,9.05957031 173.160156,8.63574219 C172.703125,8.21191406 172.072266,8 171.267578,8 C170.435547,8 169.792969,8.22460938 169.339844,8.67382812 C168.886719,9.12304688 168.660156,9.66015625 168.660156,10.2851562 C168.660156,10.7851562 168.814453,11.1914062 169.123047,11.5039062 C169.287109,11.671875 169.515625,11.8183594 169.808594,11.9433594 C169.332031,12.1347656 168.972656,12.4111328 168.730469,12.7724609 C168.488281,13.1337891 168.367188,13.5625 168.367188,14.0585938 C168.367188,14.9023438 168.649414,15.5458984 169.213867,15.9892578 C169.77832,16.4326172 170.46875,16.6542969 171.285156,16.6542969 Z M171.244141,11.5390625 C170.845703,11.5390625 170.5,11.4277344 170.207031,11.2050781 C169.914062,10.9824219 169.767578,10.6738281 169.767578,10.2792969 C169.767578,9.92773438 169.880859,9.62109375 170.107422,9.359375 C170.333984,9.09765625 170.701172,8.96679688 171.208984,8.96679688 C171.720703,8.96679688 172.101562,9.09765625 172.351562,9.359375 C172.601562,9.62109375 172.726562,9.90820312 172.726562,10.2207031 C172.726562,10.5800781 172.595703,10.8896484 172.333984,11.1494141 C172.072266,11.4091797 171.708984,11.5390625 171.244141,11.5390625 Z M171.308594,15.6933594 C170.699219,15.6933594 170.249023,15.5341797 169.958008,15.2158203 C169.666992,14.8974609 169.521484,14.5195312 169.521484,14.0820312 C169.521484,13.5742188 169.680664,13.1767578 169.999023,12.8896484 C170.317383,12.6025391 170.728516,12.4589844 171.232422,12.4589844 C171.751953,12.4589844 172.177734,12.5996094 172.509766,12.8808594 C172.841797,13.1621094 173.007812,13.5742188 173.007812,14.1171875 C173.007812,14.640625 172.84668,15.0341797 172.524414,15.2978516 C172.202148,15.5615234 171.796875,15.6933594 171.308594,15.6933594 Z" id="07:08" fill="#FFFFFF" fill-rule="nonzero"></path>
                                <g id="电量" transform="translate(281.000000, 7.000000)">
                                    <path d="M18.3462386,0.853333333 L2.13376141,0.853333333 C1.6637301,0.853333333 1.23654395,1.04466996 0.926993537,1.35357999 C0.618451857,1.66148337 0.426666667,2.08646523 0.426666667,2.55601384 L0.426666667,8.11065282 C0.426666667,8.57892752 0.619278388,9.00450589 0.929693003,9.3129862 C1.24032026,9.62167782 1.66911222,9.81333333 2.14269916,9.81333333 L18.3424075,9.81333333 C18.8168759,9.81333333 19.2445127,9.62345976 19.5536054,9.31555934 C19.8629468,9.0074112 20.0533333,8.58130091 20.0533333,8.11065282 L20.0533333,2.55601384 C20.0533333,2.08753781 19.8615802,1.66169298 19.5522986,1.35305124 C19.2434501,1.04484168 18.8171556,0.853333333 18.3462386,0.853333333 Z" id="Battery-Outline" stroke="#FFFFFF" stroke-width="0.853333333" opacity="0.47"></path>
                                    <path d="M21.3342733,3.52291748 C22.0795054,3.78675799 22.6133333,4.49770456 22.6133333,5.33333333 C22.6133333,6.16896211 22.0795054,6.87990868 21.3342733,7.14374919 Z" id="Battery-Connector" fill="#FFFFFF" opacity="0.58"></path>
                                    <path d="M1.70666667,2.99646581 C1.70666667,2.51977091 2.09519409,2.13333333 2.55300532,2.13333333 L17.9269947,2.13333333 C18.3944146,2.13333333 18.7733333,2.51451619 18.7733333,2.99646581 L18.7733333,7.67020086 C18.7733333,8.14689576 18.3848059,8.53333333 17.9269947,8.53333333 L2.55300532,8.53333333 C2.08558539,8.53333333 1.70666667,8.15215047 1.70666667,7.67020086 L1.70666667,2.99646581 Z" id="Battery-Fill" fill="#FFFFFF"></path>
                                </g>
                                <g id="Left-Detail" transform="translate(16.000000, 8.000000)" fill="#FFFFFF">
                                    <path d="M15.75,0 C16.1642136,-7.6089797e-17 16.5,0.335786438 16.5,0.75 L16.5,9.25 C16.5,9.66421356 16.1642136,10 15.75,10 L14.25,10 C13.8357864,10 13.5,9.66421356 13.5,9.25 L13.5,0.75 C13.5,0.335786438 13.8357864,7.6089797e-17 14.25,0 L15.75,0 Z M11.25,2 C11.6642136,2 12,2.33578644 12,2.75 L12,9.25 C12,9.66421356 11.6642136,10 11.25,10 L9.75,10 C9.33578644,10 9,9.66421356 9,9.25 L9,2.75 C9,2.33578644 9.33578644,2 9.75,2 L11.25,2 Z M6.75,4 C7.16421356,4 7.5,4.33578644 7.5,4.75 L7.5,9.25 C7.5,9.66421356 7.16421356,10 6.75,10 L5.25,10 C4.83578644,10 4.5,9.66421356 4.5,9.25 L4.5,4.75 C4.5,4.33578644 4.83578644,4 5.25,4 L6.75,4 Z M2.25,5.5 C2.66421356,5.5 3,5.83578644 3,6.25 L3,9.25 C3,9.66421356 2.66421356,10 2.25,10 L0.75,10 C0.335786438,10 5.07265313e-17,9.66421356 0,9.25 L0,6.25 C-5.07265313e-17,5.83578644 0.335786438,5.5 0.75,5.5 L2.25,5.5 Z" id="Signal"></path>
                                    <path d="M27.5,7.375 C28.1025746,7.375 28.6618517,7.56037858 29.1239117,7.8772162 L27.5,9.5 L25.8770842,7.87653356 C26.3389519,7.56011233 26.8978583,7.375 27.5,7.375 Z M27.4950008,3.88000011 C29.0647642,3.88000011 30.5020119,4.44736697 31.6128646,5.38822128 L30.7304837,6.27021358 C29.8481862,5.5511523 28.721944,5.11999989 27.4950008,5.11999989 C26.2707964,5.11999989 25.1468439,5.54922966 24.2654298,6.26540274 L23.3836513,5.38271142 C24.4936059,4.44515232 25.9283042,3.88000011 27.4950008,3.88000011 Z M27.5,0.5 C30.0018856,0.5 32.2836766,1.44233659 34.0098036,2.99144021 L33.1240304,3.87645986 C31.625417,2.55306832 29.6564918,1.75 27.5,1.75 C25.3435082,1.75 23.374583,2.55306832 21.8759696,3.87645986 L20.9903727,2.99128192 C22.7164788,1.4422724 24.9981996,0.5 27.5,0.5 Z" id="Wifi" stroke="#FFFFFF" stroke-linecap="round" stroke-linejoin="round"></path>
                                </g>
                            </g>
                        </g>
                        <g id="标题" transform="translate(0.000000, 19.000000)">
                            <rect id="bg" fill-opacity="0" fill="#D8D8D8" x="0" y="0" width="320" height="36"></rect>
                            <text id="我的场景标题最多显示十三个…" font-family="PingFangSC-Medium, PingFang SC" font-size="13" font-weight="400" line-spacing="18"></text>
                        </g>
                    </g>
                </g>
                <mask id="mask-4" fill="white">
                    <use xlink:href="#path-3"></use>
                </mask>
                <g id="矩形"></g>
                <g id="编组" transform="translate(142.000000, 14.000000)" fill="#CCD5DB">
                    <g id="编组-2">
                        <rect id="矩形" x="0" y="0" width="44" height="4" rx="2"></rect>
                        <circle id="椭圆形" cx="50" cy="2" r="2"></circle>
                    </g>
                </g>
            </g>
        </g>
    </g>
</svg>