<?xml version="1.0" encoding="UTF-8"?>
<svg width="24px" height="24px" viewBox="0 0 24 24" version="1.1" xmlns="http://www.w3.org/2000/svg" xmlns:xlink="http://www.w3.org/1999/xlink">
    <title>icon/tiphot</title>
    <defs>
        <rect id="path-1" x="0" y="0" width="24" height="24"></rect>
    </defs>
    <g id="2.11.5" stroke="none" stroke-width="1" fill="none" fill-rule="evenodd">
        <g id="4.1、PC作品预览页作品标签显示-热点推荐" transform="translate(-88.000000, -197.000000)">
            <g id="内容" transform="translate(0.000000, 10.000000)">
                <g id="标签" transform="translate(0.000000, 187.000000)">
                    <g id="icon/tiphot" transform="translate(88.000000, 0.000000)">
                        <mask id="mask-2" fill="white">
                            <use xlink:href="#path-1"></use>
                        </mask>
                        <g id="tiphot"></g>
                        <g id="tiphot" mask="url(#mask-2)" fill="#FFFFFF" fill-rule="nonzero">
                            <g transform="translate(0.000000, 7.000000)">
                                <path d="M19,10 L5,10 C2.23971869,9.99724385 0.00275614915,7.76028131 0,5 C0.00330611633,2.23994685 2.23994685,0.00330611633 5,0 L19,0 C21.7600532,0.00330611633 23.9966939,2.23994685 24,5 C23.9972439,7.76028131 21.7602813,9.99724385 19,10 Z M17.37,3.25 L17.37,8 L18.62,8 L18.62,3.25 L20.5,3.25 L20.5,2 L15.5,2 L15.5,3.251 L17.37,3.25 Z M4.75,2 L3.5,2 L3.5,8 L4.75,8 L4.75,5.5 L7.25,5.5 L7.299,8 L8.499,8 L8.499,2 L7.249,2 L7.298,4.25 L4.748,4.25 L4.75,2 Z M10.5,2 C9.94771525,2 9.5,2.44771525 9.5,3 L9.5,7 C9.5,7.55228475 9.94771525,8 10.5,8 L13.5,8 C14.0522847,8 14.5,7.55228475 14.5,7 L14.5,3 C14.5,2.44771525 14.0522847,2 13.5,2 L10.5,2 Z M13,6.75 L11,6.75 C10.8619288,6.75 10.75,6.63807119 10.75,6.5 L10.75,3.5 C10.75,3.36192881 10.8619288,3.25 11,3.25 L13,3.25 C13.1380712,3.25 13.25,3.36192881 13.25,3.5 L13.25,6.5 C13.25,6.63807119 13.1380712,6.75 13,6.75 Z"></path>
                            </g>
                        </g>
                    </g>
                </g>
            </g>
        </g>
    </g>
</svg>